<?xml version="1.0" standalone="no"?>
<!DOCTYPE svg PUBLIC "-//W3C//DTD SVG 20010904//EN"
 "http://www.w3.org/TR/2001/REC-SVG-20010904/DTD/svg10.dtd">
<svg version="1.0" xmlns="http://www.w3.org/2000/svg"
 width="1080.000000pt" height="720.000000pt" viewBox="0 0 1080.000000 720.000000"
 preserveAspectRatio="xMidYMid meet">

<g transform="translate(0.000000,720.000000) scale(0.100000,-0.100000)"
fill="#000000" stroke="none">
<path d="M0 7025 c0 -129 3 -175 12 -175 9 0 9 -3 0 -12 -9 -9 -12 -784 -12
-3425 l0 -3413 5400 0 5400 0 0 2262 c0 2210 0 2261 -19 2244 -10 -9 -25 -16
-32 -14 -8 2 -13 -2 -12 -9 4 -18 -151 -142 -296 -238 -561 -371 -1228 -508
-1911 -394 -223 38 -504 126 -684 215 -50 25 -96 42 -106 39 -10 -3 -27 4 -41
16 l-24 21 25 -16 c13 -9 29 -16 35 -16 5 0 -3 9 -20 20 -22 14 -39 18 -63 14
-21 -4 -40 -1 -57 10 -15 10 -26 12 -30 5 -8 -12 -68 -5 -168 18 -54 12 -70
13 -82 3 -13 -11 -14 -10 -9 4 3 9 1 16 -5 16 -6 0 -11 -6 -11 -12 0 -9 -2
-10 -8 -2 -10 16 -141 76 -152 69 -11 -7 -24 31 -15 45 4 6 -13 31 -37 55 -23
25 -47 53 -52 63 -5 9 -12 19 -15 22 -4 3 -17 28 -31 55 -13 28 -29 57 -36 65
-7 8 -23 48 -36 88 -22 63 -27 71 -38 57 -9 -11 -22 -14 -40 -10 -14 3 -66 -4
-114 -15 -49 -11 -90 -19 -92 -17 -2 2 56 20 128 40 73 21 137 42 143 48 7 7
4 8 -7 4 -11 -4 -18 -2 -18 4 0 6 -10 11 -22 11 -19 0 -20 2 -8 10 13 9 13 10
0 10 -11 1 -10 4 5 16 14 11 16 18 8 21 -7 3 -13 13 -13 24 0 11 -7 32 -16 47
l-16 27 21 -25 c11 -14 21 -29 21 -33 0 -5 10 -17 23 -28 19 -16 20 -20 7 -28
-12 -8 -10 -10 7 -8 25 1 25 1 -35 80 -24 31 -49 57 -55 57 -7 0 -55 -7 -107
-15 -141 -22 -150 -17 -20 10 63 14 118 25 122 25 5 0 -7 21 -26 48 -65 91
-206 364 -249 485 -6 17 -8 17 -34 1 l-28 -16 23 21 c19 16 22 27 17 51 -4 19
-13 30 -23 30 -13 0 -14 2 -4 8 10 7 9 17 -3 53 -92 260 -141 626 -124 934 8
158 28 327 38 321 3 -3 5 12 3 32 -1 21 10 90 26 155 l29 117 -3218 0 -3219 0
0 -175z m6235 -25 c3 -5 1 -10 -4 -10 -6 0 -11 5 -11 10 0 6 2 10 4 10 3 0 8
-4 11 -10z m-3435 -10 c0 -5 -4 -10 -10 -10 -5 0 -10 5 -10 10 0 6 5 10 10 10
6 0 10 -4 10 -10z m2880 -30 c0 -5 -5 -10 -11 -10 -5 0 -7 5 -4 10 3 6 8 10
11 10 2 0 4 -4 4 -10z m-2362 -31 c-2 -6 -8 -10 -13 -10 -5 0 -11 4 -13 10 -2
6 4 11 13 11 9 0 15 -5 13 -11z m-958 -84 c0 -8 -7 -15 -15 -15 -8 0 -15 7
-15 15 0 8 7 15 15 15 8 0 15 -7 15 -15z m-1797 -60 c1 -5 -6 -11 -15 -13 -11
-2 -18 3 -18 13 0 17 30 18 33 0z m4367 -15 c0 -5 -5 -10 -11 -10 -5 0 -7 5
-4 10 3 6 8 10 11 10 2 0 4 -4 4 -10z m730 -100 c0 -5 -4 -10 -10 -10 -5 0
-10 5 -10 10 0 6 5 10 10 10 6 0 10 -4 10 -10z m-3285 -164 c12 -8 16 -19 12
-30 -9 -23 -32 -15 -32 10 0 10 -4 22 -10 26 -7 5 -6 8 1 8 5 0 19 -6 29 -14z
m2035 -36 c0 -5 -7 -10 -15 -10 -8 0 -15 5 -15 10 0 6 7 10 15 10 8 0 15 -4
15 -10z m-3314 -47 c-10 -10 -19 5 -10 18 6 11 8 11 12 0 2 -7 1 -15 -2 -18z
m3443 -64 c22 -23 41 -44 41 -46 0 -3 -18 -23 -40 -45 -23 -21 -38 -43 -35
-48 3 -5 1 -11 -5 -15 -5 -3 -10 -1 -10 5 0 6 -20 31 -45 56 l-45 45 42 44
c24 24 46 44 49 44 4 1 25 -18 48 -40z m721 1 c0 -5 -2 -10 -4 -10 -3 0 -8 5
-11 10 -3 6 -1 10 4 10 6 0 11 -4 11 -10z m-1803 -86 c-9 -9 -28 6 -21 18 4 6
10 6 17 -1 6 -6 8 -13 4 -17z m773 -54 c0 -5 -4 -10 -10 -10 -5 0 -10 5 -10
10 0 6 5 10 10 10 6 0 10 -4 10 -10z m-1340 -40 c0 -5 -4 -10 -10 -10 -5 0
-10 5 -10 10 0 6 5 10 10 10 6 0 10 -4 10 -10z m-2732 -21 c-2 -6 -8 -10 -13
-10 -5 0 -11 4 -13 10 -2 6 4 11 13 11 9 0 15 -5 13 -11z m5792 1 c0 -5 -4
-10 -10 -10 -5 0 -10 5 -10 10 0 6 5 10 10 10 6 0 10 -4 10 -10z m-960 -60 c0
-5 -4 -10 -10 -10 -5 0 -10 5 -10 10 0 6 5 10 10 10 6 0 10 -4 10 -10z m-1293
-11 c16 -16 5 -39 -18 -39 -12 0 -19 7 -19 18 0 31 17 41 37 21z m-407 -69 c0
-5 -4 -10 -10 -10 -5 0 -10 5 -10 10 0 6 5 10 10 10 6 0 10 -4 10 -10z m-850
-50 c0 -5 -4 -10 -10 -10 -5 0 -10 5 -10 10 0 6 5 10 10 10 6 0 10 -4 10 -10z
m3911 -43 c-1 -12 -15 -9 -19 4 -3 6 1 10 8 8 6 -3 11 -8 11 -12z m-3773 -24
c5 -17 -26 -29 -40 -15 -6 6 -7 15 -3 22 9 14 37 9 43 -7z m2182 -13 c0 -5 -4
-10 -10 -10 -5 0 -10 5 -10 10 0 6 5 10 10 10 6 0 10 -4 10 -10z m525 -20 c3
-5 -1 -10 -10 -10 -9 0 -13 5 -10 10 3 6 8 10 10 10 2 0 7 -4 10 -10z m-1645
-10 c0 -5 -4 -10 -10 -10 -5 0 -10 5 -10 10 0 6 5 10 10 10 6 0 10 -4 10 -10z
m2711 -53 c-13 -13 -26 -3 -16 12 3 6 11 8 17 5 6 -4 6 -10 -1 -17z m-1931 -7
c0 -5 -4 -10 -10 -10 -5 0 -10 5 -10 10 0 6 5 10 10 10 6 0 10 -4 10 -10z
m-3890 -40 c0 -5 -4 -10 -10 -10 -5 0 -10 5 -10 10 0 6 5 10 10 10 6 0 10 -4
10 -10z m2630 -30 c0 -5 -4 -10 -10 -10 -5 0 -10 5 -10 10 0 6 5 10 10 10 6 0
10 -4 10 -10z m-2500 -40 c0 -5 -4 -10 -10 -10 -5 0 -10 5 -10 10 0 6 5 10 10
10 6 0 10 -4 10 -10z m540 -40 c0 -5 -4 -10 -10 -10 -5 0 -10 5 -10 10 0 6 5
10 10 10 6 0 10 -4 10 -10z m3691 -53 c-23 -29 -41 -59 -41 -65 0 -7 -5 -12
-11 -12 -6 0 -21 -12 -32 -27 -11 -14 -136 -166 -277 -337 -282 -343 -359
-441 -361 -459 -1 -7 0 -24 1 -39 2 -35 -26 -83 -57 -97 -45 -21 -83 -13 -119
23 -71 71 -22 176 83 176 29 0 91 60 294 285 387 428 447 494 494 543 27 29
52 58 54 63 1 6 5 8 8 5 3 -2 -14 -29 -36 -59z m-2111 33 c0 -5 -4 -10 -10
-10 -5 0 -10 5 -10 10 0 6 5 10 10 10 6 0 10 -4 10 -10z m3280 -50 c0 -5 -4
-10 -10 -10 -5 0 -10 5 -10 10 0 6 5 10 10 10 6 0 10 -4 10 -10z m-2360 -70
c0 -5 -4 -10 -10 -10 -5 0 -10 5 -10 10 0 6 5 10 10 10 6 0 10 -4 10 -10z
m120 -40 c0 -5 -5 -10 -11 -10 -5 0 -7 5 -4 10 3 6 8 10 11 10 2 0 4 -4 4 -10z
m-3289 -35 c-1 -15 -24 -12 -29 3 -3 9 2 13 12 10 10 -1 17 -7 17 -13z m1849
-55 c0 -5 -4 -10 -10 -10 -5 0 -10 5 -10 10 0 6 5 10 10 10 6 0 10 -4 10 -10z
m2724 -11 c-3 -5 -10 -7 -15 -3 -5 3 -7 10 -3 15 3 5 10 7 15 3 5 -3 7 -10 3
-15z m-2154 -9 c0 -5 -2 -10 -4 -10 -3 0 -8 5 -11 10 -3 6 -1 10 4 10 6 0 11
-4 11 -10z m-1615 -10 c3 -5 1 -10 -4 -10 -6 0 -11 5 -11 10 0 6 2 10 4 10 3
0 8 -4 11 -10z m585 -10 c0 -5 -4 -10 -10 -10 -5 0 -10 5 -10 10 0 6 5 10 10
10 6 0 10 -4 10 -10z m-1147 -42 c8 -12 7 -21 -2 -32 -19 -23 -58 -20 -66 4
-14 43 44 67 68 28z m3977 2 c0 -5 -4 -10 -10 -10 -5 0 -10 5 -10 10 0 6 5 10
10 10 6 0 10 -4 10 -10z m520 -70 c0 -5 -4 -10 -10 -10 -5 0 -10 5 -10 10 0 6
5 10 10 10 6 0 10 -4 10 -10z m-2780 -110 c0 -5 -4 -10 -10 -10 -5 0 -10 5
-10 10 0 6 5 10 10 10 6 0 10 -4 10 -10z m3750 -25 c0 -8 -4 -15 -10 -15 -5 0
-10 7 -10 15 0 8 5 15 10 15 6 0 10 -7 10 -15z m-5070 -19 c0 -3 -4 -8 -10
-11 -5 -3 -10 -1 -10 4 0 6 5 11 10 11 6 0 10 -2 10 -4z m4220 -16 c0 -5 -4
-10 -10 -10 -5 0 -10 5 -10 10 0 6 5 10 10 10 6 0 10 -4 10 -10z m-3460 -30
c0 -5 -2 -10 -4 -10 -3 0 -8 5 -11 10 -3 6 -1 10 4 10 6 0 11 -4 11 -10z
m2050 -30 c0 -5 -4 -10 -10 -10 -5 0 -10 5 -10 10 0 6 5 10 10 10 6 0 10 -4
10 -10z m504 -11 c-3 -5 -10 -7 -15 -3 -5 3 -7 10 -3 15 3 5 10 7 15 3 5 -3 7
-10 3 -15z m-1044 -40 c0 -12 -7 -19 -20 -19 -19 0 -28 28 -14 43 11 11 34 -5
34 -24z m-90 -49 c0 -5 -4 -10 -10 -10 -5 0 -10 5 -10 10 0 6 5 10 10 10 6 0
10 -4 10 -10z m-2965 -40 c-5 -8 -11 -8 -17 -2 -6 6 -7 16 -3 22 5 8 11 8 17
2 6 -6 7 -16 3 -22z m2755 5 c0 -8 -7 -15 -15 -15 -8 0 -15 7 -15 15 0 8 7 15
15 15 8 0 15 -7 15 -15z m1850 5 c0 -5 -7 -10 -16 -10 -8 0 -12 5 -9 10 3 6
10 10 16 10 5 0 9 -4 9 -10z m-200 -50 c0 -5 -4 -10 -10 -10 -5 0 -10 5 -10
10 0 6 5 10 10 10 6 0 10 -4 10 -10z m1970 0 c0 -5 -4 -10 -10 -10 -5 0 -10 5
-10 10 0 6 5 10 10 10 6 0 10 -4 10 -10z m-6013 -74 l-20 -22 -21 20 -22 21
21 22 20 22 21 -20 21 -20 -20 -23z m798 54 c-3 -5 -10 -10 -16 -10 -5 0 -9 5
-9 10 0 6 7 10 16 10 8 0 12 -4 9 -10z m2399 -7 c4 -9 1 -23 -7 -30 -7 -8 -21
-11 -30 -7 -17 6 -23 35 -10 47 12 13 41 7 47 -10z m510 -14 c-3 -5 -10 -7
-15 -3 -5 3 -7 10 -3 15 3 5 10 7 15 3 5 -3 7 -10 3 -15z m-2024 -3 c0 -3 -4
-8 -10 -11 -5 -3 -10 -1 -10 4 0 6 5 11 10 11 6 0 10 -2 10 -4z m2660 -55 c0
-14 -18 -23 -30 -16 -6 4 -8 11 -5 16 8 12 35 12 35 0z m1467 -77 c-3 -3 -12
-4 -19 -1 -8 3 -5 6 6 6 11 1 17 -2 13 -5z m-1212 -63 c25 -28 26 -32 8 -22
-23 12 -53 49 -53 65 0 6 3 6 8 1 4 -6 21 -25 37 -44z m1015 3 c0 -17 -22 -14
-28 4 -2 7 3 12 12 12 9 0 16 -7 16 -16z m-4560 -4 c0 -5 -2 -10 -4 -10 -3 0
-8 5 -11 10 -3 6 -1 10 4 10 6 0 11 -4 11 -10z m3455 -10 c-10 -11 -13 -20 -7
-20 7 0 12 -9 12 -20 0 -12 11 -32 24 -45 23 -23 24 -25 9 -67 -34 -99 14
-178 108 -178 52 0 89 -21 159 -89 23 -23 47 -41 54 -41 6 0 22 -12 35 -25 13
-14 29 -25 36 -25 7 0 24 -9 39 -21 14 -11 30 -18 35 -15 5 3 20 -3 34 -14 14
-11 32 -20 40 -20 9 0 19 -4 22 -10 3 -5 23 -10 44 -10 21 0 44 -6 50 -14 19
-23 283 -47 296 -26 3 5 19 10 35 10 16 0 32 5 35 10 4 6 11 7 17 4 6 -4 15 0
20 7 6 10 8 -2 4 -36 -3 -30 -24 -88 -52 -145 -39 -78 -61 -109 -129 -176
-134 -133 -288 -197 -480 -198 -56 0 -89 -3 -75 -7 31 -9 17 -11 -87 -13 -39
0 -66 -4 -60 -9 7 -4 -6 -5 -28 -3 -22 3 -65 8 -95 11 -151 16 -234 87 -281
239 -14 47 -20 177 -8 192 5 6 2 30 -6 57 -56 185 -31 392 66 553 32 53 131
164 145 164 4 0 -1 -9 -11 -20z m-2577 -2 c7 -7 12 -21 12 -33 0 -12 -5 -26
-12 -33 -7 -7 -21 -12 -33 -12 -12 0 -26 5 -33 12 -7 7 -12 21 -12 33 0 12 5
26 12 33 7 7 21 12 33 12 12 0 26 -5 33 -12z m1912 -17 c0 -6 -4 -13 -10 -16
-5 -3 -10 1 -10 9 0 9 5 16 10 16 6 0 10 -4 10 -9z m2355 -11 c3 -5 1 -10 -4
-10 -6 0 -11 5 -11 10 0 6 2 10 4 10 3 0 8 -4 11 -10z m-3735 -4 c0 -3 -4 -8
-10 -11 -5 -3 -10 -1 -10 4 0 6 5 11 10 11 6 0 10 -2 10 -4z m1750 -16 c0 -5
-4 -10 -10 -10 -5 0 -10 5 -10 10 0 6 5 10 10 10 6 0 10 -4 10 -10z m341 -15
c7 0 14 -6 17 -12 6 -21 -26 -15 -38 6 -13 25 -13 41 0 21 5 -8 15 -15 21 -15z
m-2141 11 c0 -3 -4 -8 -10 -11 -5 -3 -10 -1 -10 4 0 6 5 11 10 11 6 0 10 -2
10 -4z m3738 -13 c-2 -10 -10 -18 -18 -18 -8 0 -16 8 -18 18 -2 12 3 17 18 17
15 0 20 -5 18 -17z m-3483 -134 c10 -15 -1 -23 -20 -15 -9 3 -13 10 -10 16 8
13 22 13 30 -1z m3345 -104 c0 -8 -7 -15 -15 -15 -8 0 -15 7 -15 15 0 8 7 15
15 15 8 0 15 -7 15 -15z m-5480 -26 c0 -5 -7 -9 -15 -9 -15 0 -20 12 -9 23 8
8 24 -1 24 -14z m5108 0 c-2 -6 -8 -10 -13 -10 -5 0 -11 4 -13 10 -2 6 4 11
13 11 9 0 15 -5 13 -11z m962 -74 c0 -8 -7 -15 -15 -15 -16 0 -20 12 -8 23 11
12 23 8 23 -8z m-4260 -140 c0 -8 -6 -15 -12 -18 -21 -7 -38 4 -38 23 0 10 6
20 13 23 15 5 37 -11 37 -28z m4163 28 c9 -9 -13 -34 -24 -27 -14 8 -11 34 4
34 8 0 17 -3 20 -7z m602 -33 c3 -5 1 -10 -4 -10 -6 0 -11 5 -11 10 0 6 2 10
4 10 3 0 8 -4 11 -10z m-7431 -9 c10 -16 -5 -41 -24 -41 -20 0 -30 17 -22 38
5 14 38 16 46 3z m1586 -172 c0 -5 -7 -9 -15 -9 -15 0 -20 12 -9 23 8 8 24 -1
24 -14z m4838 -31 c-6 -18 -28 -21 -28 -4 0 9 7 16 16 16 9 0 14 -5 12 -12z
m-5674 -36 c-5 -4 -21 -25 -34 -47 -31 -52 -60 -72 -60 -43 0 15 92 110 99
102 3 -3 1 -8 -5 -12z m3736 -18 c0 -17 -22 -14 -28 4 -2 7 3 12 12 12 9 0 16
-7 16 -16z m-3790 -114 c0 -5 -5 -10 -11 -10 -5 0 -7 5 -4 10 3 6 8 10 11 10
2 0 4 -4 4 -10z m530 -180 c0 -5 -7 -10 -15 -10 -8 0 -15 5 -15 10 0 6 7 10
15 10 8 0 15 -4 15 -10z m4781 -53 c-13 -13 -26 -3 -16 12 3 6 11 8 17 5 6 -4
6 -10 -1 -17z m3720 -73 l-16 -21 -21 20 -22 21 21 22 21 22 17 -21 c15 -20
15 -23 0 -43z m-927 -90 c9 -8 16 -21 16 -28 0 -17 -21 -42 -41 -49 -22 -7
-59 19 -59 43 0 24 26 50 50 50 10 0 26 -7 34 -16z m-6854 -24 c0 -5 -2 -10
-4 -10 -3 0 -8 5 -11 10 -3 6 -1 10 4 10 6 0 11 -4 11 -10z m4470 -45 c0 -8
-4 -15 -10 -15 -5 0 -10 7 -10 15 0 8 5 15 10 15 6 0 10 -7 10 -15z m-197 -2
c9 -9 -13 -34 -24 -27 -14 8 -11 34 4 34 8 0 17 -3 20 -7z m-4135 -51 c2 -7
-3 -12 -12 -12 -9 0 -16 7 -16 16 0 17 22 14 28 -4z m2402 8 c0 -5 -7 -10 -16
-10 -8 0 -12 5 -9 10 3 6 10 10 16 10 5 0 9 -4 9 -10z m-130 -26 c0 -8 -7 -14
-15 -14 -15 0 -21 21 -9 33 10 9 24 -2 24 -19z m5395 -24 c3 -5 1 -10 -4 -10
-6 0 -11 5 -11 10 0 6 2 10 4 10 3 0 8 -4 11 -10z m-6675 -20 c0 -5 -4 -10
-10 -10 -5 0 -10 5 -10 10 0 6 5 10 10 10 6 0 10 -4 10 -10z m-1238 -70 c6 0
-2 -13 -18 -29 l-29 -29 -23 25 -23 25 23 23 c22 23 23 23 41 4 10 -10 23 -19
29 -19z m-1540 -105 c0 -5 -5 -11 -11 -13 -6 -2 -11 4 -11 13 0 9 5 15 11 13
6 -2 11 -8 11 -13z m3778 5 c0 -5 -4 -10 -10 -10 -5 0 -10 5 -10 10 0 6 5 10
10 10 6 0 10 -4 10 -10z m-2660 -140 c0 -5 -4 -10 -10 -10 -5 0 -10 5 -10 10
0 6 5 10 10 10 6 0 10 -4 10 -10z m500 -16 c0 -14 -21 -19 -33 -7 -9 9 13 34
24 27 5 -3 9 -12 9 -20z m3030 -32 c0 -13 -12 -22 -22 -16 -10 6 -1 24 13 24
5 0 9 -4 9 -8z m-1760 -12 c0 -5 -5 -10 -11 -10 -5 0 -7 5 -4 10 3 6 8 10 11
10 2 0 4 -4 4 -10z m1380 -20 c0 -5 -4 -10 -10 -10 -5 0 -10 5 -10 10 0 6 5
10 10 10 6 0 10 -4 10 -10z m-3360 -10 c0 -5 -2 -10 -4 -10 -3 0 -8 5 -11 10
-3 6 -1 10 4 10 6 0 11 -4 11 -10z m7809 -42 c-18 -24 -34 -45 -36 -47 -2 -2
-6 -1 -10 3 -6 5 64 86 75 86 2 0 -11 -19 -29 -42z m-5349 -22 c0 -3 -4 -8
-10 -11 -5 -3 -10 -1 -10 4 0 6 5 11 10 11 6 0 10 -2 10 -4z m-480 -52 c11
-12 10 -18 -3 -32 -16 -15 -18 -15 -34 0 -13 14 -14 20 -3 32 7 9 16 16 20 16
4 0 13 -7 20 -16z m248 -11 c-4 -22 -22 -20 -26 1 -2 10 3 16 13 16 10 0 15
-7 13 -17z m-2300 -58 c7 -14 23 -30 37 -37 30 -14 33 -34 5 -43 -11 -4 -27
-20 -35 -36 -14 -27 -45 -41 -45 -20 0 5 -15 24 -34 42 l-35 32 42 43 c23 24
45 44 48 44 3 0 11 -11 17 -25z m1272 -25 c0 -5 -4 -10 -10 -10 -5 0 -10 5
-10 10 0 6 5 10 10 10 6 0 10 -4 10 -10z m4310 -5 c0 -8 -7 -15 -15 -15 -8 0
-15 7 -15 15 0 8 7 15 15 15 8 0 15 -7 15 -15z m-2280 -15 c0 -5 -4 -10 -10
-10 -5 0 -10 5 -10 10 0 6 5 10 10 10 6 0 10 -4 10 -10z m1930 -20 c0 -5 -4
-10 -10 -10 -5 0 -10 5 -10 10 0 6 5 10 10 10 6 0 10 -4 10 -10z m1750 -10 c0
-5 -2 -10 -4 -10 -3 0 -8 5 -11 10 -3 6 -1 10 4 10 6 0 11 -4 11 -10z m-1375
-10 c-3 -5 -10 -10 -16 -10 -5 0 -9 5 -9 10 0 6 7 10 16 10 8 0 12 -4 9 -10z
m-697 -75 c-39 -51 -58 -66 -58 -48 0 7 91 103 98 103 2 0 -16 -25 -40 -55z
m-1078 35 c0 -5 -4 -10 -10 -10 -5 0 -10 5 -10 10 0 6 5 10 10 10 6 0 10 -4
10 -10z m4560 6 c0 -3 -4 -8 -10 -11 -5 -3 -10 -1 -10 4 0 6 5 11 10 11 6 0
10 -2 10 -4z m-8345 -15 c3 -5 1 -12 -5 -16 -5 -3 -10 1 -10 9 0 18 6 21 15 7z
m2150 -21 c3 -5 -1 -10 -10 -10 -9 0 -13 5 -10 10 3 6 8 10 10 10 2 0 7 -4 10
-10z m4989 -17 c4 -9 0 -23 -9 -32 -13 -14 -17 -14 -32 1 -13 14 -14 20 -3 32
16 21 36 20 44 -1z m-2666 -46 c4 -20 -25 -34 -40 -19 -15 15 -1 44 19 40 10
-2 19 -11 21 -21z m-1192 -44 c-10 -10 -19 5 -10 18 6 11 8 11 12 0 2 -7 1
-15 -2 -18z m-501 7 c3 -5 -1 -10 -9 -10 -9 0 -16 5 -16 10 0 6 4 10 9 10 6 0
13 -4 16 -10z m-1695 -10 c0 -5 -4 -10 -10 -10 -5 0 -10 5 -10 10 0 6 5 10 10
10 6 0 10 -4 10 -10z m5570 0 c0 -5 -2 -10 -4 -10 -3 0 -8 5 -11 10 -3 6 -1
10 4 10 6 0 11 -4 11 -10z m-6845 -48 c0 -18 -20 -15 -23 4 -3 10 1 15 10 12
7 -3 13 -10 13 -16z m7905 -2 c0 -5 -2 -10 -4 -10 -3 0 -8 5 -11 10 -3 6 -1
10 4 10 6 0 11 -4 11 -10z m-2020 -10 c0 -5 -7 -10 -15 -10 -8 0 -15 5 -15 10
0 6 7 10 15 10 8 0 15 -4 15 -10z m-339 -43 c-13 -13 -26 -3 -16 12 3 6 11 8
17 5 6 -4 6 -10 -1 -17z m-4941 3 c0 -5 -5 -10 -11 -10 -5 0 -7 5 -4 10 3 6 8
10 11 10 2 0 4 -4 4 -10z m4748 -41 c-2 -6 -8 -10 -13 -10 -5 0 -11 4 -13 10
-2 6 4 11 13 11 9 0 15 -5 13 -11z m-2954 -30 c-3 -5 -10 -7 -15 -3 -5 3 -7
10 -3 15 3 5 10 7 15 3 5 -3 7 -10 3 -15z m4056 6 c0 -8 -7 -15 -15 -15 -16 0
-20 12 -8 23 11 12 23 8 23 -8z m530 -15 c0 -5 -2 -10 -4 -10 -3 0 -8 5 -11
10 -3 6 -1 10 4 10 6 0 11 -4 11 -10z m-1130 -90 c0 -5 -7 -10 -15 -10 -8 0
-15 5 -15 10 0 6 7 10 15 10 8 0 15 -4 15 -10z m-1535 -11 c10 -15 -1 -23 -20
-15 -9 3 -13 10 -10 16 8 13 22 13 30 -1z m-3350 -65 c300 -57 591 -235 771
-473 64 -84 184 -308 184 -343 0 -26 -31 -112 -43 -120 -6 -4 -15 -4 -19 -2
-4 3 -8 0 -8 -6 0 -7 -7 -9 -16 -6 -14 6 -16 1 -10 -34 9 -60 -39 -160 -77
-160 -7 0 -6 4 3 10 23 15 4 12 -37 -5 -20 -9 -43 -13 -51 -10 -7 3 -23 0 -34
-6 -29 -16 -31 -6 -9 42 11 24 24 62 30 83 11 41 6 61 -8 37 -5 -7 -14 -10
-20 -6 -19 11 -91 -5 -91 -21 0 -8 -5 -14 -10 -14 -6 0 -16 -11 -22 -25 -6
-14 -17 -24 -24 -21 -8 3 -16 1 -19 -4 -10 -16 -28 -11 -21 5 3 8 1 15 -4 15
-6 0 -10 -4 -10 -10 0 -5 -4 -10 -9 -10 -6 0 -7 15 -4 34 3 22 0 40 -8 49 -11
12 -18 4 -47 -52 -48 -92 -49 -93 -97 -71 -22 11 -51 20 -65 20 -35 2 -123 33
-127 45 -1 6 20 24 48 40 28 17 55 38 61 49 6 12 6 16 0 12 -12 -7 -109 31
-136 53 -11 9 -16 10 -12 4 4 -7 3 -13 -2 -13 -5 0 -12 9 -15 21 -3 12 -10 18
-15 15 -6 -3 -12 -1 -14 6 -9 26 -36 -1 -36 -36 0 -19 -3 -39 -6 -44 -8 -13
-59 -7 -64 7 -2 6 -10 11 -18 11 -8 0 -13 3 -12 8 5 16 -24 52 -43 52 -11 0
-22 6 -25 14 -3 8 -12 12 -21 9 -10 -4 -14 0 -11 12 2 13 -4 19 -20 20 -12 1
-32 12 -44 25 l-22 23 56 -6 c30 -3 75 -15 99 -27 67 -33 91 -41 84 -30 -3 6
-10 10 -15 10 -13 0 -80 71 -75 80 3 4 -4 10 -15 13 -11 3 -20 10 -20 17 0 6
5 8 12 4 7 -4 8 -3 4 4 -4 6 -14 8 -24 5 -9 -3 -14 -2 -9 2 9 10 -58 44 -88
45 -40 1 -48 16 -16 30 l31 13 -21 18 c-12 11 -17 19 -11 19 20 0 13 17 -9 23
-12 3 -18 10 -15 16 8 13 -48 24 -76 15 -13 -4 -34 -8 -47 -10 -22 -2 -22 -1
10 28 19 18 52 43 74 57 42 27 64 71 28 56 -25 -10 -123 -12 -123 -3 0 5 6 8
14 8 11 0 12 5 3 25 -10 21 -17 24 -37 19 -50 -13 -55 -10 -67 36 -18 68 -16
117 5 130 14 9 12 10 -10 5 -16 -3 -28 -3 -28 0 0 9 142 75 164 76 12 0 15 3
9 6 -17 6 -16 18 3 37 14 15 14 16 -3 16 -16 1 -16 2 2 12 11 6 23 16 27 21
19 29 243 29 393 1z m3969 5 c-3 -5 -10 -7 -15 -3 -5 3 -7 10 -3 15 3 5 10 7
15 3 5 -3 7 -10 3 -15z m2564 -41 l-20 -20 -20 20 c-20 19 -20 20 -2 39 19 20
19 20 41 1 l21 -20 -20 -20z m-6938 38 c0 -11 -19 -15 -25 -6 -3 5 1 10 9 10
9 0 16 -2 16 -4z m1380 -5 c0 -6 -4 -13 -10 -16 -5 -3 -10 1 -10 9 0 9 5 16
10 16 6 0 10 -4 10 -9z m7220 -1 c0 -5 -2 -10 -4 -10 -3 0 -8 5 -11 10 -3 6
-1 10 4 10 6 0 11 -4 11 -10z m-590 -8 c0 -13 -12 -22 -22 -16 -10 6 -1 24 13
24 5 0 9 -4 9 -8z m-4480 -12 c0 -5 -4 -10 -10 -10 -5 0 -10 5 -10 10 0 6 5
10 10 10 6 0 10 -4 10 -10z m3753 -15 c-8 -22 -22 -18 -16 5 3 11 9 17 14 15
4 -3 6 -12 2 -20z m-2749 -41 c22 -22 20 -50 -6 -74 -27 -25 -39 -25 -61 0
-20 23 -22 61 -5 78 17 17 54 15 72 -4z m-524 -8 c0 -3 -4 -8 -10 -11 -5 -3
-10 -1 -10 4 0 6 5 11 10 11 6 0 10 -2 10 -4z m-1885 -66 c3 -5 -1 -10 -9 -10
-9 0 -16 5 -16 10 0 6 4 10 9 10 6 0 13 -4 16 -10z m-445 -10 c0 -5 -4 -10
-10 -10 -5 0 -10 5 -10 10 0 6 5 10 10 10 6 0 10 -4 10 -10z m6383 -24 c7 -17
-11 -36 -35 -36 -18 0 -25 29 -11 43 11 12 41 8 46 -7z m-2318 -96 c37 -30 73
-60 79 -66 6 -5 25 -17 41 -26 17 -8 59 -30 95 -48 36 -19 83 -37 105 -42 29
-5 19 -6 -37 -4 -63 2 -89 9 -150 38 -85 41 -167 116 -203 188 -26 51 -34 84
-11 40 8 -14 44 -50 81 -80z m-725 50 c0 -5 -4 -10 -10 -10 -5 0 -10 5 -10 10
0 6 5 10 10 10 6 0 10 -4 10 -10z m3410 -40 c0 -5 -5 -10 -11 -10 -5 0 -7 5
-4 10 3 6 8 10 11 10 2 0 4 -4 4 -10z m-6344 -11 c10 -17 -13 -36 -27 -22 -12
12 -4 33 11 33 5 0 12 -5 16 -11z m4734 -3 c0 -3 -4 -8 -10 -11 -5 -3 -10 -1
-10 4 0 6 5 11 10 11 6 0 10 -2 10 -4z m-2250 -10 c0 -2 -8 -10 -17 -17 -16
-13 -17 -12 -4 4 13 16 21 21 21 13z m100 -6 c0 -5 -7 -10 -16 -10 -8 0 -12 5
-9 10 3 6 10 10 16 10 5 0 9 -4 9 -10z m-1422 -54 c5 -24 -10 -38 -31 -30 -20
7 -23 40 -4 47 19 8 32 2 35 -17z m1240 -38 c-132 -157 -238 -286 -238 -290 0
-3 -15 -21 -32 -40 -67 -71 -119 -147 -123 -180 -8 -60 -66 -87 -105 -48 -38
38 -13 100 40 100 24 0 45 17 122 103 51 56 149 165 218 241 69 76 124 143
122 148 -1 5 2 7 7 4 5 -4 12 -2 16 4 3 5 9 10 12 10 3 0 -15 -24 -39 -52z
m-2900 21 c-2 -6 -8 -10 -13 -10 -5 0 -11 4 -13 10 -2 6 4 11 13 11 9 0 15 -5
13 -11z m4032 -9 c0 -5 -4 -10 -10 -10 -5 0 -10 5 -10 10 0 6 5 10 10 10 6 0
10 -4 10 -10z m2620 -10 c0 -5 -4 -10 -10 -10 -5 0 -10 5 -10 10 0 6 5 10 10
10 6 0 10 -4 10 -10z m-5360 -11 c0 -5 15 -23 32 -40 l32 -29 -32 -29 c-17
-17 -32 -35 -32 -40 0 -21 -20 -11 -60 29 l-40 40 38 39 c36 39 62 51 62 30z
m1156 -30 c10 -17 -13 -36 -27 -22 -12 12 -4 33 11 33 5 0 12 -5 16 -11z
m2034 -9 c0 -5 -4 -10 -10 -10 -5 0 -10 5 -10 10 0 6 5 10 10 10 6 0 10 -4 10
-10z m710 -5 c0 -8 -7 -15 -15 -15 -8 0 -15 7 -15 15 0 8 7 15 15 15 8 0 15
-7 15 -15z m-4719 -58 c-1 -12 -15 -9 -19 4 -3 6 1 10 8 8 6 -3 11 -8 11 -12z
m1674 -1 c21 -15 14 -46 -11 -46 -21 0 -44 29 -37 47 7 17 24 17 48 -1z m3845
-26 c0 -5 -7 -10 -15 -10 -8 0 -15 5 -15 10 0 6 7 10 15 10 8 0 15 -4 15 -10z
m-5380 -30 c0 -5 -4 -10 -10 -10 -5 0 -10 5 -10 10 0 6 5 10 10 10 6 0 10 -4
10 -10z m4790 0 c0 -5 -4 -10 -10 -10 -5 0 -10 5 -10 10 0 6 5 10 10 10 6 0
10 -4 10 -10z m-8340 -10 c0 -5 -2 -10 -4 -10 -3 0 -8 5 -11 10 -3 6 -1 10 4
10 6 0 11 -4 11 -10z m6580 -40 c0 -5 -4 -10 -10 -10 -5 0 -10 5 -10 10 0 6 5
10 10 10 6 0 10 -4 10 -10z m-3510 -50 c0 -5 -4 -10 -10 -10 -5 0 -10 5 -10
10 0 6 5 10 10 10 6 0 10 -4 10 -10z m4890 0 c0 -5 -4 -10 -10 -10 -5 0 -10 5
-10 10 0 6 5 10 10 10 6 0 10 -4 10 -10z m450 -50 c0 -5 -4 -10 -10 -10 -5 0
-10 5 -10 10 0 6 5 10 10 10 6 0 10 -4 10 -10z m-6930 -20 c0 -5 -4 -10 -10
-10 -5 0 -10 5 -10 10 0 6 5 10 10 10 6 0 10 -4 10 -10z m5220 0 c0 -5 -4 -10
-10 -10 -5 0 -10 5 -10 10 0 6 5 10 10 10 6 0 10 -4 10 -10z m-1930 -10 c0 -5
-4 -10 -9 -10 -6 0 -13 5 -16 10 -3 6 1 10 9 10 9 0 16 -4 16 -10z m-820 -10
c0 -5 -4 -10 -10 -10 -5 0 -10 5 -10 10 0 6 5 10 10 10 6 0 10 -4 10 -10z
m2200 -10 c0 -5 -5 -10 -11 -10 -5 0 -7 5 -4 10 3 6 8 10 11 10 2 0 4 -4 4
-10z m-310 -28 c0 -13 -12 -22 -22 -16 -10 6 -1 24 13 24 5 0 9 -4 9 -8z
m1640 -2 c0 -5 -4 -10 -10 -10 -5 0 -10 5 -10 10 0 6 5 10 10 10 6 0 10 -4 10
-10z m-3386 -31 c-3 -5 -10 -7 -15 -3 -5 3 -7 10 -3 15 3 5 10 7 15 3 5 -3 7
-10 3 -15z m2266 13 c0 -13 -12 -22 -22 -16 -10 6 -1 24 13 24 5 0 9 -4 9 -8z
m1426 -38 c10 -38 -17 -61 -51 -46 -42 20 -27 72 22 72 16 0 25 -8 29 -26z
m-3016 -4 c0 -5 -7 -10 -16 -10 -8 0 -12 5 -9 10 3 6 10 10 16 10 5 0 9 -4 9
-10z m5050 0 c0 -5 -4 -10 -10 -10 -5 0 -10 5 -10 10 0 6 5 10 10 10 6 0 10
-4 10 -10z m-8260 -14 c0 -3 -4 -8 -10 -11 -5 -3 -10 -1 -10 4 0 6 5 11 10 11
6 0 10 -2 10 -4z m7120 -25 c0 -6 -4 -13 -10 -16 -5 -3 -10 1 -10 9 0 9 5 16
10 16 6 0 10 -4 10 -9z m610 -1 c0 -5 -4 -10 -10 -10 -5 0 -10 5 -10 10 0 6 5
10 10 10 6 0 10 -4 10 -10z m-6059 -33 c-1 -12 -15 -9 -19 4 -3 6 1 10 8 8 6
-3 11 -8 11 -12z m4599 -16 c0 -6 -4 -13 -10 -16 -5 -3 -10 1 -10 9 0 9 5 16
10 16 6 0 10 -4 10 -9z m1605 -1 c3 -5 1 -10 -4 -10 -6 0 -11 5 -11 10 0 6 2
10 4 10 3 0 8 -4 11 -10z m-3305 -16 c0 -8 -5 -12 -10 -9 -6 4 -8 11 -5 16 9
14 15 11 15 -7z m-850 -4 c0 -5 -4 -10 -10 -10 -5 0 -10 5 -10 10 0 6 5 10 10
10 6 0 10 -4 10 -10z m850 -60 c0 -5 -4 -10 -10 -10 -5 0 -10 5 -10 10 0 6 5
10 10 10 6 0 10 -4 10 -10z m-1440 -20 c0 -5 -4 -10 -10 -10 -5 0 -10 5 -10
10 0 6 5 10 10 10 6 0 10 -4 10 -10z m56 -17 c-10 -10 -19 5 -10 18 6 11 8 11
12 0 2 -7 1 -15 -2 -18z m4106 -18 c0 -5 -5 -11 -11 -13 -6 -2 -11 4 -11 13 0
9 5 15 11 13 6 -2 11 -8 11 -13z m430 -135 l-46 -47 -43 44 c-24 24 -43 46
-43 48 0 3 19 24 43 48 l42 43 46 -45 46 -44 -45 -47z m-7447 120 c3 -5 -1
-10 -9 -10 -9 0 -16 5 -16 10 0 6 4 10 9 10 6 0 13 -4 16 -10z m425 -5 c0 -8
-4 -15 -10 -15 -5 0 -7 7 -4 15 4 8 8 15 10 15 2 0 4 -7 4 -15z m2910 5 c0 -5
-4 -10 -10 -10 -5 0 -10 5 -10 10 0 6 5 10 10 10 6 0 10 -4 10 -10z m-2950
-21 c0 -5 -7 -9 -15 -9 -15 0 -20 12 -9 23 8 8 24 -1 24 -14z m6010 11 c0 -5
-4 -10 -10 -10 -5 0 -10 5 -10 10 0 6 5 10 10 10 6 0 10 -4 10 -10z m-4050
-10 c0 -5 -4 -10 -10 -10 -5 0 -10 5 -10 10 0 6 5 10 10 10 6 0 10 -4 10 -10z
m2712 -35 c0 -5 -5 -11 -11 -13 -6 -2 -11 4 -11 13 0 9 5 15 11 13 6 -2 11 -8
11 -13z m768 -65 c0 -5 -4 -10 -10 -10 -5 0 -10 5 -10 10 0 6 5 10 10 10 6 0
10 -4 10 -10z m-7065 -10 c3 -5 1 -10 -4 -10 -6 0 -11 5 -11 10 0 6 2 10 4 10
3 0 8 -4 11 -10z m2663 -28 c2 -7 -3 -12 -12 -12 -9 0 -16 7 -16 16 0 17 22
14 28 -4z m1036 -13 c-3 -5 -10 -7 -15 -3 -5 3 -7 10 -3 15 3 5 10 7 15 3 5
-3 7 -10 3 -15z m3564 -7 c2 -7 -3 -12 -12 -12 -9 0 -16 7 -16 16 0 17 22 14
28 -4z m-4488 -2 c0 -5 -2 -10 -4 -10 -3 0 -8 5 -11 10 -3 6 -1 10 4 10 6 0
11 -4 11 -10z m2490 -14 c0 -3 -4 -8 -10 -11 -5 -3 -10 -1 -10 4 0 6 5 11 10
11 6 0 10 -2 10 -4z m-530 -16 c0 -5 -4 -10 -10 -10 -5 0 -10 5 -10 10 0 6 5
10 10 10 6 0 10 -4 10 -10z m-1924 -67 c-10 -10 -19 5 -10 18 6 11 8 11 12 0
2 -7 1 -15 -2 -18z m3314 -28 c0 -8 -4 -15 -9 -15 -13 0 -22 16 -14 24 11 11
23 6 23 -9z m-1255 -5 c3 -5 1 -10 -4 -10 -6 0 -11 5 -11 10 0 6 2 10 4 10 3
0 8 -4 11 -10z m-2114 -33 c-13 -13 -26 -3 -16 12 3 6 11 8 17 5 6 -4 6 -10
-1 -17z m-701 5 c0 -13 -12 -22 -22 -16 -10 6 -1 24 13 24 5 0 9 -4 9 -8z
m3310 -47 c0 -18 -5 -25 -19 -25 -11 0 -23 5 -26 10 -11 18 3 40 25 40 15 0
20 -7 20 -25z m-6436 -16 c-8 -14 -34 -11 -34 4 0 8 3 17 7 20 9 9 34 -13 27
-24z m9964 -70 c-2 -6 -8 -10 -13 -10 -5 0 -11 4 -13 10 -2 6 4 11 13 11 9 0
15 -5 13 -11z m-4028 -39 c0 -5 -4 -10 -10 -10 -5 0 -10 5 -10 10 0 6 5 10 10
10 6 0 10 -4 10 -10z m-633 -31 c15 -15 5 -39 -17 -39 -22 0 -32 24 -17 39 6
6 14 11 17 11 3 0 11 -5 17 -11z m1363 -57 c0 -13 -12 -22 -22 -16 -10 6 -1
24 13 24 5 0 9 -4 9 -8z m-2880 -47 c0 -8 -4 -15 -10 -15 -5 0 -10 7 -10 15 0
8 5 15 10 15 6 0 10 -7 10 -15z m5050 -1 c0 -9 -5 -14 -12 -12 -18 6 -21 28
-4 28 9 0 16 -7 16 -16z m-4333 -50 c-9 -9 -28 6 -21 18 4 6 10 6 17 -1 6 -6
8 -13 4 -17z m4741 15 c-2 -6 -8 -10 -13 -10 -5 0 -11 4 -13 10 -2 6 4 11 13
11 9 0 15 -5 13 -11z m-5988 -9 c0 -5 -2 -10 -4 -10 -3 0 -8 5 -11 10 -3 6 -1
10 4 10 6 0 11 -4 11 -10z"/>
<path d="M2316 1095 c4 -16 10 -37 14 -45 5 -8 8 -19 9 -25 2 -19 26 -10 29
12 2 13 -9 34 -28 55 l-30 33 6 -30z"/>
<path d="M2120 1071 c0 -5 5 -13 10 -16 6 -3 10 -2 10 4 0 5 -4 13 -10 16 -5
3 -10 2 -10 -4z"/>
<path d="M6800 7191 c0 -22 63 -71 91 -71 21 0 29 -5 29 -18 0 -21 59 -78 118
-113 l44 -26 -33 -7 c-44 -9 -29 -20 39 -27 42 -5 33 -6 -38 -4 -52 1 -165 10
-250 20 -134 16 -171 17 -275 6 -66 -6 -124 -16 -129 -21 -7 -7 -3 -10 10 -10
12 0 24 -3 28 -7 3 -4 30 -6 59 -6 28 0 39 -1 24 -4 -33 -5 -31 -26 2 -31 15
-2 21 0 16 7 -4 8 1 8 17 2 13 -5 40 -13 61 -16 38 -6 38 -7 21 -26 -13 -15
-14 -19 -3 -20 72 -8 107 -20 112 -39 3 -12 13 -16 34 -15 25 1 29 -2 25 -18
-4 -18 -1 -19 38 -12 45 8 90 -8 90 -31 0 -9 44 -26 185 -69 6 -2 -1 -4 -15
-4 -14 -1 -32 -6 -40 -11 -34 -23 114 23 225 70 75 32 138 39 129 16 -5 -14
53 -66 74 -66 7 0 17 -9 24 -20 7 -11 21 -20 30 -20 10 0 18 -4 18 -10 0 -5 9
-10 20 -10 11 0 20 -4 20 -10 0 -5 7 -10 15 -10 9 0 18 -7 21 -15 4 -9 13 -13
24 -10 21 7 43 -17 35 -37 -9 -23 27 -58 48 -47 12 7 17 6 17 -2 0 -6 7 -8 16
-5 8 3 13 2 10 -3 -3 -5 6 -13 22 -19 15 -5 38 -19 51 -31 13 -12 27 -19 30
-16 3 4 -1 11 -9 16 -12 9 -12 10 3 5 10 -3 21 -6 23 -6 2 0 1 -12 -2 -26 -5
-19 -4 -25 5 -20 6 4 11 1 11 -8 0 -12 10 -16 35 -16 25 0 38 -5 42 -17 9 -24
44 -52 66 -53 9 0 17 -4 17 -10 0 -5 7 -7 15 -4 11 5 13 2 9 -11 -6 -14 -3
-16 17 -11 22 6 21 4 -9 -22 -39 -34 -91 -52 -158 -53 -38 0 -44 -2 -28 -9 12
-5 25 -13 29 -19 3 -6 14 -11 24 -11 10 0 40 -17 67 -39 56 -44 118 -81 138
-81 7 0 19 -7 26 -15 7 -8 21 -15 31 -15 9 0 27 -13 39 -30 12 -16 28 -30 36
-30 8 0 20 -11 26 -25 9 -21 13 -23 20 -11 7 12 13 9 37 -15 17 -16 36 -27 44
-23 9 3 19 -6 27 -25 12 -31 41 -48 61 -35 8 4 9 -1 4 -16 l-7 -22 43 25 c24
14 52 34 63 43 28 24 86 36 86 18 0 -9 -12 -15 -32 -15 -24 -1 -27 -3 -10 -6
12 -2 22 -9 22 -14 0 -5 11 -9 24 -9 14 0 28 -4 31 -10 3 -5 15 -10 26 -10 14
0 19 -6 17 -17 -4 -25 10 -43 33 -43 10 0 19 -6 19 -14 0 -8 9 -22 21 -30 12
-8 18 -19 15 -25 -7 -11 19 -5 39 9 6 4 26 10 45 13 19 3 44 8 55 12 14 5 -27
-27 -52 -40 -11 -5 15 -45 38 -59 17 -10 29 -26 30 -39 0 -21 1 -21 9 -2 6 15
9 6 11 -34 3 -45 9 -57 31 -74 31 -23 151 -51 156 -37 2 6 13 10 25 9 21 0 21
-1 2 -9 -11 -5 -14 -9 -7 -9 6 -1 12 -7 12 -15 0 -8 9 -18 20 -21 11 -4 31
-17 44 -30 26 -26 98 -65 119 -65 8 0 19 -11 25 -25 6 -14 18 -25 26 -25 8 0
23 -11 34 -25 11 -14 27 -25 36 -25 9 0 16 -4 16 -8 0 -14 80 -42 81 -29 0 7
4 3 9 -8 5 -11 9 -14 9 -7 1 6 6 12 11 12 6 0 8 -11 4 -25 -4 -16 -2 -25 6
-25 6 0 8 5 5 10 -4 6 6 10 21 10 22 0 25 -3 16 -12 -14 -14 -16 -52 -3 -44
12 8 112 -54 105 -65 -5 -9 16 -13 49 -9 10 1 29 -11 41 -25 18 -20 29 -26 47
-21 13 3 18 3 11 0 -18 -9 -4 -24 22 -24 13 0 35 -9 50 -21 14 -11 30 -17 36
-14 29 18 -20 -62 -55 -88 -10 -8 29 -3 55 7 18 7 43 -11 55 -39 8 -19 9 -18
13 5 4 23 5 24 13 5 6 -17 8 -17 8 -2 1 9 8 17 17 17 11 0 14 -6 9 -20 -6 -18
-2 -20 39 -20 27 0 46 5 46 11 0 6 7 8 16 5 8 -3 23 -2 33 4 22 11 77 -3 73
-19 -3 -16 28 -27 37 -13 8 14 70 -1 81 -18 4 -6 36 -11 71 -11 86 0 143 -15
135 -36 -5 -11 -2 -14 10 -9 8 3 18 6 20 6 2 0 4 585 4 1300 l0 1300 -2000 0
c-1216 0 -2000 -4 -2000 -9z m720 -91 c0 -5 -4 -10 -10 -10 -5 0 -10 5 -10 10
0 6 5 10 10 10 6 0 10 -4 10 -10z m-180 -76 c0 -8 -5 -12 -10 -9 -6 4 -8 11
-5 16 9 14 15 11 15 -7z m-257 -81 c-7 -2 -21 -2 -30 0 -10 3 -4 5 12 5 17 0
24 -2 18 -5z m8 -96 c-13 -13 -26 -3 -16 12 3 6 11 8 17 5 6 -4 6 -10 -1 -17z
m719 -37 c0 -5 -5 -10 -11 -10 -5 0 -7 5 -4 10 3 6 8 10 11 10 2 0 4 -4 4 -10z
m-250 -174 c0 -3 -4 -8 -10 -11 -5 -3 -10 -1 -10 4 0 6 5 11 10 11 6 0 10 -2
10 -4z m215 -136 c0 -9 -9 -15 -21 -14 -14 0 -20 -4 -17 -13 7 -17 -5 -17 -22
1 -12 12 -11 16 8 30 26 18 52 16 52 -4z m207 -65 c0 -5 -5 -11 -11 -13 -6 -2
-11 4 -11 13 0 9 5 15 11 13 6 -2 11 -8 11 -13z m228 -75 c0 -5 -4 -10 -10
-10 -5 0 -10 5 -10 10 0 6 5 10 10 10 6 0 10 -4 10 -10z m770 -434 c0 -3 -4
-8 -10 -11 -5 -3 -10 -1 -10 4 0 6 5 11 10 11 6 0 10 -2 10 -4z m-520 -30 c0
-21 -21 -31 -30 -15 -5 7 -6 17 -4 21 9 14 34 9 34 -6z m600 -106 c0 -5 -2
-10 -4 -10 -3 0 -8 5 -11 10 -3 6 -1 10 4 10 6 0 11 -4 11 -10z m125 0 c3 -5
1 -10 -4 -10 -6 0 -11 5 -11 10 0 6 2 10 4 10 3 0 8 -4 11 -10z m235 -450 c0
-5 -7 -10 -15 -10 -8 0 -15 5 -15 10 0 6 7 10 15 10 8 0 15 -4 15 -10z m220
-110 c0 -5 -7 -10 -15 -10 -8 0 -15 5 -15 10 0 6 7 10 15 10 8 0 15 -4 15 -10z
m270 -285 c0 -8 -7 -15 -15 -15 -8 0 -15 7 -15 15 0 8 7 15 15 15 8 0 15 -7
15 -15z m410 -115 c0 -5 -4 -10 -10 -10 -5 0 -10 5 -10 10 0 6 5 10 10 10 6 0
10 -4 10 -10z m220 -66 c0 -16 -16 -19 -25 -4 -8 13 4 32 16 25 5 -4 9 -13 9
-21z"/>
<path d="M7380 6700 c0 -5 5 -10 10 -10 6 0 10 5 10 10 0 6 -4 10 -10 10 -5 0
-10 -4 -10 -10z"/>
<path d="M7487 6357 c17 -7 35 -15 39 -19 4 -5 14 -8 23 -8 9 0 -1 9 -22 20
-20 11 -45 20 -54 19 -10 0 -4 -6 14 -12z"/>
<path d="M7600 6305 c0 -8 4 -15 10 -15 5 0 7 7 4 15 -4 8 -8 15 -10 15 -2 0
-4 -7 -4 -15z"/>
<path d="M7630 6282 c0 -5 7 -13 16 -16 10 -4 14 -1 12 6 -5 15 -28 23 -28 10z"/>
<path d="M7785 6190 c3 -5 11 -10 16 -10 6 0 7 5 4 10 -3 6 -11 10 -16 10 -6
0 -7 -4 -4 -10z"/>
<path d="M8936 5584 c-4 -10 -1 -14 6 -12 15 5 23 28 10 28 -5 0 -13 -7 -16
-16z"/>
<path d="M10048 4823 c6 -2 18 -2 25 0 6 3 1 5 -13 5 -14 0 -19 -2 -12 -5z"/>
<path d="M9642 4769 c-23 -4 -52 -16 -65 -25 -19 -14 -19 -15 -2 -9 47 18 66
18 59 1 -3 -9 -2 -16 4 -16 6 0 18 -3 28 -7 12 -5 15 -3 9 6 -6 10 -3 11 13 2
11 -6 33 -11 49 -11 23 0 25 2 13 11 -12 9 -12 10 3 5 10 -3 21 -6 23 -6 2 0
4 -7 4 -16 0 -13 3 -14 15 -4 8 7 26 9 43 5 20 -4 34 -1 45 10 9 8 20 15 24
14 24 -4 36 2 26 12 -11 11 -179 40 -223 38 -14 -1 -44 -5 -68 -10z"/>
<path d="M7590 4196 c0 -3 9 -10 20 -16 11 -6 20 -8 20 -6 0 3 -9 10 -20 16
-11 6 -20 8 -20 6z"/>
</g>
</svg>
